PathFileType	4	(X/Y/Z)	/Users/itak/Documents/Research/Walk-IL/dataset/trc/00321_00011.trc
DataRate	CameraRate	NumFrames	NumMarkers	Units	OrigDataRate	OrigDataStartFrame	OrigNumFrames
100.000000	100.000000	4	55	mm	100.000000	305	488
Frame#	Time	LPSI			L3			STRN			T10			C7			CLAV			RBAK			LBAK			LSHO			LUPA			LAEL			LAOL			LWTS			LWPS			LFRA			LIFD			LHPS			RSHO			RUPA			RAEL			RAOL			RWTS			RWPS			RFRA			RIFD			RHTS			RHPS			RBHD			LFHD			RFHD			LBHD			LHIP			RHIP			RASI			LASI			LKNE			LTHI			LANK			LTIP			LTOE			LMT1			LMT5			LHEE			RKNE			RTHI			RANK			RTIP			RTOE			RMT1			RMT5			RHEE			RPSI			LHTS			*53			*54			
		X1	Y1	Z1	X2	Y2	Z2	X3	Y3	Z3	X4	Y4	Z4	X5	Y5	Z5	X6	Y6	Z6	X7	Y7	Z7	X8	Y8	Z8	X9	Y9	Z9	X10	Y10	Z10	X11	Y11	Z11	X12	Y12	Z12	X13	Y13	Z13	X14	Y14	Z14	X15	Y15	Z15	X16	Y16	Z16	X17	Y17	Z17	X18	Y18	Z18	X19	Y19	Z19	X20	Y20	Z20	X21	Y21	Z21	X22	Y22	Z22	X23	Y23	Z23	X24	Y24	Z24	X25	Y25	Z25	X26	Y26	Z26	X27	Y27	Z27	X28	Y28	Z28	X29	Y29	Z29	X30	Y30	Z30	X31	Y31	Z31	X32	Y32	Z32	X33	Y33	Z33	X34	Y34	Z34	X35	Y35	Z35	X36	Y36	Z36	X37	Y37	Z37	X38	Y38	Z38	X39	Y39	Z39	X40	Y40	Z40	X41	Y41	Z41	X42	Y42	Z42	X43	Y43	Z43	X44	Y44	Z44	X45	Y45	Z45	X46	Y46	Z46	X47	Y47	Z47	X48	Y48	Z48	X49	Y49	Z49	X50	Y50	Z50	X51	Y51	Z51	X52	Y52	Z52	X53	Y53	Z53	X54	Y54	Z54	X55	Y55	Z55	

306	3.05	595.4223022460938	948.9144287109375	-2.47734808921814	590.9439697265625	1006.006652832031	57.54845428466797	812.6302490234375	1201.398193359375	46.45973587036133	570.5259399414062	1126.180541992188	45.12431335449219	604.8352661132812	1375.324951171875	23.69657135009766	762.7811889648438	1323.544555664062	38.62739181518555	563.7075805664062	1237.682739257812	91.13877868652344	599.01708984375	1334.557739257812	-78.220947265625	686.226806640625	1352.1474609375	-127.4370193481445	692.8837890625	1232.542602539062	-194.8995513916016	776.3492431640625	1046.182739257812	-216.4682006835938	718.5132446289062	1008.611022949219	-164.8430480957031	974.0730590820312	884.0776977539062	-165.7913208007812	948.9343872070312	852.6154174804688	-221.3265686035156	836.3383178710938	959.391845703125	-223.4045867919922	1069.067138671875	755.8821411132812	-159.2248687744141	985.2344360351562	792.7169189453125	-213.0184631347656	655.6221923828125	1368.400146484375	189.6413116455078	634.2044067382812	1306.872436523438	251.5763397216797	583.5924682617188	1043.537963867188	274.6282043457031	573.4322509765625	1041.79541015625	180.6939392089844	633.2743530273438	799.1290283203125	266.9693298339844	578.3021850585938	797.258056640625	319.9699096679688	587.40478515625	975.7554321289062	291.8399963378906	581.0099487304688	626.3623046875	283.0063171386719	618.2713012695312	698.6703491210938	286.1058044433594	562.1752319335938	713.9232177734375	321.2728881835938	643.6458740234375	1578.201293945312	103.0164947509766	809.1263427734375	1602.707885742188	-21.79705238342285	801.9612426757812	1606.085083007812	78.90177917480469	626.5659790039062	1565.496948242188	-40.58198928833008	676.272705078125	896.3903198242188	-114.0292663574219	698.8441772460938	901.1768798828125	228.9211578369141	796.126220703125	938.88623046875	177.2678375244141	799.7301025390625	926.306640625	-62.46842956542969	724.2633056640625	441.218017578125	-91.17034149169922	726.4203491210938	578.6431884765625	-103.2433319091797	429.8381958007812	116.9153671264648	-78.48566436767578	580.0446166992188	263.9848327636719	-97.08058929443359	603.7672119140625	33.42397308349609	-24.96256828308105	539.6935424804688	32.0646858215332	16.54108810424805	535.5999145507812	56.60778427124023	-95.72614288330078	401.322998046875	130.2291259765625	-10.03243064880371	856.3600463867188	454.6289672851562	201.4410095214844	814.5032348632812	711.553466796875	231.8539886474609	880.4563598632812	39.23456573486328	174.6797790527344	890.9690551757812	340.4271545410156	191.3301391601562	1073.216430664062	45.79364013671875	118.2099609375	1016.333129882812	35.74129867553711	77.53244781494141	981.375244140625	28.36272048950195	188.6578674316406	830.7151489257812	40.01918792724609	126.7708892822266	605.24951171875	946.70654296875	127.3875198364258	1027.4765625	826.4844970703125	-179.4039916992188	nan	nan	nan	nan	nan	nan	
307	3.06	602.7569580078125	949.67138671875	0.4641300737857819	598.6217651367188	1007.061401367188	60.28818511962891	819.6889038085938	1202.682006835938	47.70418167114258	577.8421020507812	1127.135375976562	47.62823104858398	611.5673828125	1376.279541015625	25.66345405578613	769.59521484375	1324.716430664062	39.90169143676758	570.5946044921875	1238.75341796875	93.4635009765625	605.2103271484375	1335.473388671875	-76.05421447753906	692.2066650390625	1352.968872070312	-125.8262710571289	698.0317993164062	1233.026123046875	-192.8578796386719	779.20263671875	1045.6494140625	-213.4240264892578	721.3115844726562	1009.203735351562	-161.0797271728516	974.090576171875	879.1688232421875	-164.344970703125	947.5501098632812	848.052001953125	-219.47607421875	837.4039306640625	957.5836181640625	-220.6681365966797	1065.304321289062	748.2581176757812	-158.073486328125	982.1671752929688	787.1766967773438	-211.3429870605469	663.047607421875	1369.77734375	191.2738647460938	642.2050170898438	1308.218872070312	253.4759521484375	593.8663940429688	1044.503784179688	277.0975036621094	582.9215698242188	1042.6630859375	183.2360992431641	646.931640625	799.8505859375	268.9443969726562	592.1043090820312	797.8884887695312	322.1403503417969	598.5571899414062	976.5734252929688	294.1108703613281	596.7745971679688	627.1517944335938	284.74609375	633.08544921875	699.2560424804688	287.9947204589844	577.0264892578125	714.2973022460938	323.3230895996094	650.2252807617188	1579.050537109375	104.8349227905273	815.4799194335938	1603.787719726562	-20.40082550048828	808.5159912109375	1607.02783203125	80.35048675537109	632.802001953125	1566.548583984375	-38.75734710693359	682.8624877929688	896.8829345703125	-111.3044052124023	706.478271484375	902.869873046875	231.5833740234375	803.6228637695312	940.2490844726562	179.5047760009766	806.2151489257812	927.1488647460938	-60.24398040771484	737.0924682617188	441.9793395996094	-91.78401184082031	737.4213256835938	579.0827026367188	-102.5970001220703	435.7867736816406	124.6580581665039	-77.13849639892578	589.1485595703125	268.1531066894531	-96.86103057861328	604.9395751953125	32.84070205688477	-24.97903251647949	542.4002075195312	34.69319152832031	17.07371711730957	538.2971801757812	59.22597122192383	-95.44467926025391	408.8294677734375	139.1669158935547	-8.272322654724121	859.9899291992188	454.7593078613281	204.1843414306641	821.1680908203125	712.5267333984375	233.9437255859375	880.8690185546875	39.24313735961914	174.8878784179688	893.7125244140625	340.0154724121094	193.1543579101562	1073.832275390625	43.89310455322266	118.3044815063477	1016.658996582031	35.11884689331055	77.63335418701172	981.647705078125	27.79505157470703	188.8972015380859	830.9837646484375	40.22562789916992	126.9719161987305	612.8012084960938	948.231201171875	130.141357421875	1025.705078125	819.8885498046875	-178.1663055419922	nan	nan	nan	nan	nan	nan	
308	3.07	609.8033447265625	950.3074951171875	3.42999792098999	605.934326171875	1008.065246582031	63.08723068237305	826.5848388671875	1203.838134765625	48.82390975952148	585.1337890625	1128.071655273438	50.16459274291992	618.2147216796875	1377.209228515625	27.60610008239746	776.3138427734375	1325.789306640625	41.07942581176758	577.3104248046875	1239.822387695312	95.84526824951172	611.281982421875	1336.335815429688	-73.89847564697266	698.0588989257812	1353.740356445312	-124.275032043457	703.0382080078125	1233.475830078125	-190.8795166015625	781.9514770507812	1045.148071289062	-210.4689331054688	724.0423583984375	1009.79052734375	-157.4202423095703	973.7804565429688	874.1416625976562	-163.0599975585938	945.81982421875	843.4754638671875	-217.8269653320312	838.2943115234375	955.8068237304688	-218.0484619140625	1060.858764648438	740.36962890625	-157.0561370849609	978.575927734375	781.5866088867188	-209.8603363037109	670.4986572265625	1371.110229492188	192.8704528808594	650.2841796875	1309.542724609375	255.3908081054688	604.2174072265625	1045.48291015625	279.7211303710938	592.3342895507812	1043.49951171875	185.9628143310547	661.0134887695312	800.6133422851562	270.9975280761719	606.3478393554688	798.5147705078125	324.4041442871094	609.8421630859375	977.3746337890625	296.5028076171875	613.43310546875	627.9767456054688	286.6302490234375	648.5497436523438	699.7951049804688	289.9700317382812	592.5230102539062	714.638916015625	325.4514465332031	656.6905517578125	1579.803588867188	106.6024475097656	821.7040405273438	1604.85546875	-19.05648803710938	814.9425659179688	1607.936401367188	81.76007080078125	638.9336547851562	1567.525512695312	-36.9789924621582	689.1966552734375	897.279296875	-108.5480346679688	713.9295043945312	904.3187255859375	234.2222137451172	810.9295654296875	941.40478515625	181.7178192138672	812.4927368164062	927.964599609375	-58.0433349609375	750.1139526367188	442.8311157226562	-92.65668487548828	748.5189208984375	579.5349731445312	-102.1488800048828	442.3431396484375	132.6670684814453	-75.94110870361328	598.7671508789062	272.4198303222656	-96.76274108886719	606.6729125976562	32.05963897705078	-25.11529922485352	545.635986328125	37.94208908081055	17.55665969848633	541.4080810546875	62.2044792175293	-95.18146514892578	416.875732421875	148.2360382080078	-6.715904235839844	863.5142211914062	454.8401184082031	206.8312530517578	827.74365234375	713.401611328125	235.8863372802734	881.2359008789062	39.25529479980469	175.0591278076172	896.3591918945312	339.5731506347656	194.8404388427734	1074.32666015625	42.19760513305664	118.353385925293	1016.928466796875	34.62383270263672	77.69119262695312	981.8981323242188	27.35054206848145	189.0906524658203	831.189697265625	40.37983703613281	127.169075012207	620.1150512695312	949.56396484375	132.9295959472656	1023.473449707031	813.1607666015625	-177.1333618164062	nan	nan	nan	nan	nan	nan	
309	3.08	616.5240478515625	950.7919921875	6.376379013061523	612.875732421875	1009.002197265625	65.9107666015625	833.3037719726562	1204.837646484375	49.82651138305664	592.3949584960938	1128.972778320312	52.72171783447266	624.77490234375	1378.098754882812	29.52018547058105	782.9319458007812	1326.743041992188	42.1641845703125	583.9410400390625	1240.8515625	98.29682922363281	617.2432861328125	1337.134887695312	-71.7689208984375	703.7949829101562	1354.4384765625	-122.7942657470703	707.9148559570312	1233.855346679688	-188.9617614746094	784.5994262695312	1044.6376953125	-207.6281433105469	726.7041015625	1010.324340820312	-153.8886108398438	973.1343383789062	868.9847412109375	-161.9332885742188	943.742919921875	838.8999633789062	-216.3787689208984	839.0217895507812	954.0354614257812	-215.5567016601562	1055.767578125	732.2769165039062	-156.1801605224609	974.5013427734375	775.983642578125	-208.5646514892578	677.966064453125	1372.36572265625	194.4411163330078	658.4313354492188	1310.8037109375	257.3200073242188	614.640625	1046.431762695312	282.5031433105469	601.64208984375	1044.261596679688	188.8973693847656	675.4830932617188	801.4368286132812	273.1180419921875	621.0155639648438	799.119873046875	326.7643127441406	621.263427734375	978.1276245117188	299.0254516601562	630.94580078125	628.8359375	288.6382751464844	664.64453125	700.3002319335938	292.0261535644531	608.6448974609375	714.9529418945312	327.6559753417969	663.0546264648438	1580.466064453125	108.319091796875	827.7899780273438	1605.896484375	-17.76801681518555	821.2403564453125	1608.80712890625	83.1231689453125	644.965087890625	1568.409545898438	-35.24674606323242	695.279052734375	897.5507202148438	-105.7884216308594	721.1970825195312	905.5360717773438	236.8154754638672	818.0536499023438	942.3490600585938	183.8829803466797	818.5760498046875	928.7255859375	-55.89535903930664	763.2322387695312	443.7991638183594	-93.65708923339844	759.64404296875	580.0057983398438	-101.8408126831055	449.4586486816406	140.8481292724609	-74.89193725585938	608.8271484375	276.7493896484375	-96.74958038330078	609.0340576171875	31.10835838317871	-25.39368057250977	549.4633178710938	41.7636833190918	17.95477485656738	544.9646606445312	65.54360198974609	-94.93331909179688	425.3653259277344	157.3166656494141	-5.368182182312012	867.0098266601562	454.8594055175781	209.271484375	834.16552734375	714.1375732421875	237.6953125	881.5609741210938	39.28073501586914	175.1761627197266	898.9813842773438	339.1256408691406	196.3137359619141	1074.71875	40.69624710083008	118.3373107910156	1017.163024902344	34.21164703369141	77.69066619873047	982.1337890625	27.01817512512207	189.2148742675781	831.3483276367188	40.50017547607422	127.3483200073242	627.1841430664062	950.7003173828125	135.7284851074219	1020.789855957031	806.3458862304688	-176.2992401123047	nan	nan	nan	nan	nan	nan	
